<svg id="efz4i8YqhKm1" xmlns="http://www.w3.org/2000/svg" xmlns:xlink="http://www.w3.org/1999/xlink" viewBox="0 0 150 200" shape-rendering="geometricPrecision" text-rendering="geometricPrecision"><g transform="matrix(1 0 0 0.669159 0.000025-.000001)"><rect width="54.555492" height="104.793446" rx="0" ry="0" transform="matrix(.794485 0-.349222 0.959479 36.596155 0.000001)" fill="#0242c1" stroke-width="0"/><rect width="54.555492" height="102.83469" rx="0" ry="0" transform="matrix(.794485 0 0.349222 0.959479-.000001 99.547112)" fill="#0242c1" stroke-width="0"/><path d="M57.583874,0L9.282883,99.547112l69.972751,98.667725-42.65948-.000001-36.596156-97.667725L36.596153,0h20.987721Z" transform="translate(.000002 0.000001)" fill="#0651e6" stroke-width="0.6"/></g><g transform="matrix(1 0 0 0.67-14.96138-1.131297)"><rect width="54.555492" height="102.83469" rx="0" ry="0" transform="matrix(.794485 0 0.349222 0.959479 85.560801 100.547112)" fill="#5302c1" stroke-width="0"/><rect width="54.555492" height="104.793446" rx="0" ry="0" transform="matrix(.794485 0-.349222 0.959479 121.617866 198.214837)" fill="#5302c1" stroke-width="0"/><path d="M107.232561,100.547112l57.583875,98.667725-57.583876,99.547111h-21.67176l36.057065-99.547111L85.5608,100.547112h21.671761Z" transform="translate(.000001 0)" fill="#7519f3" stroke-width="0.6"/></g></svg>
